PathFileType	4	(X/Y/Z)	RBDS028\RBDS028runT25.trc
DataRate	CameraRate	NumFrames	NumMarkers	Units	OrigDataRate	OrigDataStartFrame	OrigNumFrames
150.000000	150.000000	4	33	mm	150.000000	2812	4500
Frame#	Time	L.ASIS			L.Heel.Bottom			L.Heel.Lateral			L.Heel.Top			L.Iliac.Crest			L.MT1			L.MT5			L.PSIS			L.Shank.Bottom.Lateral			L.Shank.Bottom.Medial			L.Shank.Top.Lateral			L.Shank.Top.Medial			L.Thigh.Bottom.Lateral			L.Thigh.Bottom.Medial			L.Thigh.Top.Lateral			L.Thigh.Top.Medial			R.ASIS			R.ASY			R.Heel.Bottom			R.Heel.Lateral			R.Heel.Top			R.Iliac.Crest			R.MT1			R.MT5			R.PSIS			R.Shank.Bottom.Lateral			R.Shank.Bottom.Medial			R.Shank.Top.Lateral			R.Shank.Top.Medial			R.Thigh.Bottom.Lateral			R.Thigh.Bottom.Medial			R.Thigh.Top.Lateral			R.Thigh.Top.Medial			
		X1	Y1	Z1	X2	Y2	Z2	X3	Y3	Z3	X4	Y4	Z4	X5	Y5	Z5	X6	Y6	Z6	X7	Y7	Z7	X8	Y8	Z8	X9	Y9	Z9	X10	Y10	Z10	X11	Y11	Z11	X12	Y12	Z12	X13	Y13	Z13	X14	Y14	Z14	X15	Y15	Z15	X16	Y16	Z16	X17	Y17	Z17	X18	Y18	Z18	X19	Y19	Z19	X20	Y20	Z20	X21	Y21	Z21	X22	Y22	Z22	X23	Y23	Z23	X24	Y24	Z24	X25	Y25	Z25	X26	Y26	Z26	X27	Y27	Z27	X28	Y28	Z28	X29	Y29	Z29	X30	Y30	Z30	X31	Y31	Z31	X32	Y32	Z32	X33	Y33	Z33	

2813	18.74666666666667	2127.502061922291	873.6577249695725	910.4728118586647	2008.212887852357	165.1104856102935	941.3383601554123	2039.057608814251	168.9629316926903	896.0407922215829	2038.860272353857	198.7140117679073	942.9976323925054	2068.498286842283	929.2559053137002	870.4676326726843	2206.284796909963	63.94853034958405	963.1895637291902	2166.569534125499	86.07970431548381	858.9245670030116	1964.496454024256	901.778707605529	957.5271953312001	2132.074604209847	251.2936409010921	886.8611990343692	2097.493296415879	265.5145603784125	921.9252737480838	2156.392655879411	327.9326357357587	875.9368737710211	2125.705707205425	345.2723152667097	915.5964309435354	2248.423138892202	606.9493769758182	857.4682026138642	2194.451186189559	563.1956918561305	879.6839518127914	2177.725205968433	690.5066691302264	848.8230202956881	2125.70104838255	647.7276175494803	866.5874382298597	2091.932685501308	872.76504263754	1144.917960954634	1832.741626894829	83.54954383982303	1039.483970810324	1646.013463191504	111.7662157197166	1034.415671379654	1682.437111724313	112.7979577441913	1076.3169269604	1673.797580544271	147.8440308734299	1037.276402200573	2052.411701069572	936.0454194511875	1154.974133971534	1843.749583394348	36.45357815653392	984.9186061713194	1807.512604471797	37.2644491617556	1094.700516100332	1956.34766222424	905.7769003937367	1048.552315498482	1777.300103878054	207.2726438258914	1097.774350186827	1746.54890811074	235.2675937530852	1060.267395912648	1809.769801372633	278.1590630958217	1120.533835890701	1782.242138405337	303.5918205523644	1081.630124955177	1973.90492737216	537.4549528371814	1158.384653723714	1916.896481358925	548.9555076216734	1116.889627162544	1982.963720191331	646.6247826529168	1172.774838755399	1928.24521115362	656.7315956713431	1133.282136288019	
2814	18.75333333333333	2127.354452031439	878.2988361539642	910.3852276853358	2028.756073932309	149.9308213030373	940.557751262032	2060.042269667068	155.4657545097358	895.795626963922	2057.070153867368	185.4881036486434	942.3430904917445	2068.001669948189	934.3621669776077	871.2251802569006	2232.279033401611	62.15156736965141	967.285997409171	2193.129657035352	80.66557822532556	862.0753856820759	1964.992169336095	906.109936185312	958.8216382812069	2147.210430646287	244.0314920685713	887.4539365557636	2111.462880149596	256.0599737495947	922.0097488093502	2166.684067683788	321.9790178207681	876.283478440081	2134.413162562404	337.4016904376119	915.4049390650384	2246.438808832825	608.9837857430346	859.4654607496834	2191.896571057931	565.8734346624557	881.3611427155301	2176.676158887894	693.1582007330368	849.8577052787832	2124.098079964262	651.0675147938584	867.5695085158328	2093.999615436099	874.6401422249722	1144.548372188264	1820.68100397031	84.98249702603694	1040.205952171798	1634.841570456788	121.2287041379415	1034.963881231751	1671.19454990123	120.2933301337026	1076.954610981903	1664.125427661794	156.0360594979076	1038.154159514803	2056.707505770888	939.7388956955815	1155.374213315697	1829.366347729704	37.44572620897886	985.1305787347741	1793.045099121647	39.07847180772085	1094.957215606339	1957.883567040514	909.7588070083148	1050.186466007099	1766.693864480447	213.416383592537	1098.370632252879	1736.344172593326	241.0030928765786	1060.290644840612	1799.276822360627	284.4867533923941	1120.398046510651	1772.009512630742	309.4949680082889	1081.068572118672	1966.970299181654	542.6490450280478	1157.877397556136	1910.410617141258	556.0778629019889	1116.231507466962	1979.373409050739	651.4000268165051	1172.603339259584	1925.182931614458	663.3723687031248	1132.833497822868	
2815	18.76	2127.210164491947	882.6202268468411	910.2441987567458	2049.867937680075	135.5006009612795	939.7628390637238	2081.675522530637	142.6545787325655	895.6400713758613	2075.742461508921	172.8322596353407	941.6139041988879	2067.272072309146	939.0843656710207	872.0112467883987	2257.59095719378	61.43296817210067	972.1595608745848	2219.713256234686	76.12825731991795	865.9158110363068	1965.557189067373	910.061912264289	960.1935373970176	2162.526881665133	237.0747556165118	888.0712944607312	2125.630496335447	246.8857452170289	921.9484935768411	2177.116057956887	315.9603144174173	876.4580851010131	2143.235188751968	329.4301299375339	914.8620522783599	2243.881124990063	610.0263411541857	861.326296362795	2188.620315340313	567.7529359470911	882.8589675261096	2175.384763672883	695.0470995473984	850.8013390745873	2122.104313295759	653.8399351538756	868.4570202401677	2096.264163951454	876.3971369869171	1144.13717404213	1808.973941917821	86.66408289050625	1040.913700826016	1624.414433729172	131.1419258722571	1035.487814940097	1660.586870931615	128.1821940833939	1077.565567028084	1655.199448713953	164.5692018868156	1039.020233947285	2060.996186924378	943.0548608583143	1155.713791717603	1815.392687248025	38.87203776246951	985.3645135738142	1778.911068484143	41.16682630521945	1095.22292909957	1959.507733465228	913.3925320264195	1051.87950297618	1756.72103513733	219.6649866443825	1098.985106096004	1726.794150862298	246.8376965201045	1060.344800364066	1789.442302260772	290.8967807718576	1120.305854793193	1762.43220717767	315.497970661886	1080.556850952606	1960.661263340729	547.9154618949701	1157.495727162885	1904.566433598878	563.1924120811981	1115.745681223499	1976.33446662033	656.1680284920443	1172.576183138945	1922.69950095343	669.9317912824189	1132.542751364172	
2816	18.76666666666667	2127.115214313254	886.5722978462228	910.0969955917818	2071.261191591193	121.9826169895313	939.0432000622333	2103.664526336272	130.6658769204571	895.6417026177953	2094.628138572735	160.9003530865562	940.8680787497559	2066.411883093684	943.3912408705812	872.8045061434769	2281.970673869644	61.81770359370492	977.6903789442854	2246.018962581993	72.50119817839546	870.3926934319683	1966.196968896244	913.5920640192348	961.5934292426557	2177.82145803887	230.5527497785679	888.7176884546066	2139.805207980314	238.1354798110407	921.7713815836291	2187.536880196095	310.0098851778362	876.4777245192462	2152.050258472366	321.5009549642917	914.0169785058812	2240.828806801394	610.1312764889032	862.9512826918814	2184.725127448439	568.8712746553618	884.0923839608055	2173.902446349598	696.201843487959	851.5957274004289	2119.796482250686	656.0516498956208	869.1905258257358	2098.648174313189	878.0572496275983	1143.724185642494	1797.59369090032	88.63859293619792	1041.639474318301	1614.75660003895	141.4588911122617	1035.901930634204	1650.596957250002	136.4409563478213	1078.08403874412	1647.014573630861	173.4051190140078	1039.819044727472	2065.131783754165	945.9837453792117	1155.975436869827	1801.861401775324	40.76507150367352	985.6539388724278	1765.063399012957	43.5526015191498	1095.476887399627	1961.18459983721	916.6471031583574	1053.573065634992	1747.389137153372	225.9894977613277	1099.587870285139	1717.904768412263	252.7579384983722	1060.406593212375	1780.281701478247	297.3550387046837	1120.242989531018	1753.533888211841	321.5796486868016	1080.080616010946	1955.026826313868	553.1826919939004	1157.209518063522	1899.411379926754	570.2056712783827	1115.394206561876	1973.845937459618	660.8727636886204	1172.671703399844	1920.784071128315	676.3315534553569	1132.388609965748	
